# xmcd
#
# Track frame offsets:
#	150
#	17070
#	35031
#	46324
#	67908
#	80182
#
# Disc length: 1347 seconds
#
# Revision: 1
# Processed by: cddbd v1.5.2PL0 Copyright (c) Steve Scherf et al.
# Submitted via: audiograbber 1.83.01
#
DISCID=4a054106
DTITLE=Darlene Olson - Stay Up And Fight
DYEAR=2007
DGENRE=Country
TTITLE0=01 Stay Up
TTITLE1=02 Telephone
TTITLE2=03 Housebound
TTITLE3=04 Piano In Heaven
TTITLE4=05 High Roller
TTITLE5=06 Slip Again
EXTD=
EXTT0=
EXTT1=
EXTT2=
EXTT3=
EXTT4=
EXTT5=
PLAYORDER=
